<?xml version="1.0" ?><svg viewBox="0 0 40 40" xmlns="http://www.w3.org/2000/svg"><defs><style>.cls-1{fill:#666;}.cls-2{fill:#1a1a1a;}.cls-3{fill:#333;}.cls-4{fill:#4d4d4d;}.cls-5{fill:#fff;}</style></defs><g id="Word"><g data-name="Word 32x" id="Word_32x"><g id="icon"><path class="cls-1" d="M14.17,8H32.83A1.17,1.17,0,0,1,34,9.17V30.84A1.15,1.15,0,0,1,32.83,32H14.17a1.21,1.21,0,0,1-.83-.33,1.14,1.14,0,0,1-.34-.81V9.17a1.15,1.15,0,0,1,.34-.82A1.33,1.33,0,0,1,14.17,8Z" id="Path-28"/><path class="cls-2" d="M34,26H13v4.84A1.15,1.15,0,0,0,14.17,32H32.83A1.15,1.15,0,0,0,34,30.84h0Z" id="Path-29"/><path class="cls-3" d="M13,20H34v6H13Z" id="Rectangle-10"/><path class="cls-4" d="M13,14H34v6H13Z" id="Rectangle-11"/></g><path d="M7.16,13.16H18.82A1.15,1.15,0,0,1,20,14.3V25.71a1.15,1.15,0,0,1-1.16,1.15H7.16a1.26,1.26,0,0,1-.82-.34A1.14,1.14,0,0,1,6,25.71V14.29A1.15,1.15,0,0,1,7.16,13.16Z" data-name="Back Plate-2" id="Back_Plate-2"/><path class="cls-5" d="M16.58,24.29H15l-1.83-5.91-1.93,5.91H9.68L7.92,15.73H9.5l1.22,6,1.84-5.82h1.31l1.75,5.82,1.23-6h1.49Z" id="Letter"/></g></g></svg>