<svg xmlns="http://www.w3.org/2000/svg" viewBox="0.5 0 127.2 24"><path d="M31.056 4.979V.215l-5.73 3.008v-.178C25.326 1.146 23.965 0 21.994 0H3.831C1.755 0 .5 1.146.5 3.045v4.8L8.523 12 .5 16.191v4.8C.5 22.854 1.755 24 3.831 24h18.162c1.97 0 3.33-1.146 3.33-3.009v-.25l5.731 3.044V18.95L17.73 12l13.327-7.021ZM13.11 14.363l9.852 5.16H3.22l9.888-5.16Zm9.78-9.885L13.109 9.6 3.222 4.478h19.666Zm25.361 14.696c-5.746 0-9.76-3.648-9.76-8.874 0-5.226 4.014-8.874 9.76-8.874 1.45 0 3.153.164 5.763 1.352v3.717c-1.889-1.053-3.756-1.587-5.55-1.587-3.6 0-6.114 2.218-6.114 5.39 0 3.173 2.514 5.392 6.114 5.392 1.745 0 3.663-.544 5.55-1.574v3.705c-2.612 1.188-4.313 1.352-5.763 1.352v.001Zm13.459 0c-3.397 0-5.769-2.58-5.769-6.273 0-3.693 2.475-6.3 5.884-6.3 1.884 0 3.194.575 4.247 1.868l.085.102V7.214h3.322v11.692h-3.322v-1.66l-.087.124c-.854 1.231-2.24 1.804-4.36 1.804Zm1.148-9.786c-1.99 0-3.434 1.478-3.434 3.513 0 2.036 1.444 3.487 3.434 3.487 1.99 0 3.46-1.468 3.46-3.487s-1.454-3.513-3.46-3.513ZM71.999 24V7.214h3.35v1.46l.086-.12C76.078 7.651 77.6 6.6 79.774 6.6c3.34 0 5.763 2.65 5.763 6.3s-2.382 6.273-5.79 6.273c-2.034 0-3.485-.585-4.312-1.743l-.087-.12V24h-3.35Zm6.62-14.614c-1.99 0-3.431 1.478-3.431 3.514 0 2.035 1.444 3.486 3.432 3.486s3.407-1.467 3.407-3.486c0-2.02-1.433-3.514-3.407-3.514Zm18.725 9.788c-5.747 0-9.76-3.648-9.76-8.874 0-5.226 4.013-8.874 9.76-8.874 1.449 0 3.152.164 5.763 1.352v3.717c-1.89-1.053-3.757-1.587-5.549-1.587-3.6 0-6.114 2.218-6.114 5.39 0 3.173 2.514 5.392 6.114 5.392 1.745 0 3.663-.544 5.549-1.574v3.705c-2.612 1.188-4.314 1.352-5.763 1.352v.001Zm13.957 0c-3.746 0-6.165-1.768-6.165-4.502V6.867h3.323v6.835c0 1.68 1.063 2.683 2.842 2.683 1.779 0 2.791-1.002 2.791-2.682V6.867h3.322v7.802c0 2.736-2.399 4.503-6.113 4.503v.001Zm13.446 0c-3.679 0-4.986-2.282-4.986-4.236V6.242l3.322-1.748v2.374h4.586v2.718h-4.586v4.682c0 .629.24 2.092 2.468 2.092.618 0 1.386-.163 2.116-.448v2.8c-1.162.426-2.527.46-2.922.46l.002.002Z" fill="#000000ff"/></svg>