<svg fill="#000000ff" xmlns="http://www.w3.org/2000/svg" width="50" height="50"><path d="M30 26v9h-4.18c.12-.38.18-.78.18-1.2V26h4zm0 11v9H17c-1.65 0-3-1.35-3-3v-5h7.8c1.03 0 1.98-.37 2.71-1H30zm2-11h16v9H32zm0 11h16v6c0 1.65-1.35 3-3 3H32v-9zm-2-22v9h-4v-7.8c0-.42-.06-.82-.18-1.2H30zm2 0h16v9H32zM30 4v9h-5.49c-.73-.63-1.68-1-2.71-1H14V7c0-1.65 1.35-3 3-3h13zm18 3v6H32V4h13c1.65 0 3 1.35 3 3zM21.8 36H4.2A2.2 2.2 0 0 1 2 33.8V16.2A2.2 2.2 0 0 1 4.2 14h17.6a2.2 2.2 0 0 1 2.2 2.2v17.6a2.2 2.2 0 0 1-2.2 2.2zM7.968 19l3.494 5.978L7.631 31h2.863l2.521-4.716L15.548 31h2.821L14.6 25l3.685-6H15.61l-2.455 4.505L10.832 19H7.968z"/></svg>