<svg xmlns="http://www.w3.org/2000/svg" width="50" height="50"><path fill="red" stroke="#000" d="M28 4.03c-6.28.29-11.84 3.34-15.49 7.97h8.29a4.2 4.2 0 0 1 4.2 4.2V24h3V4.03zm2 0V24h19.97C49.47 13.2 40.8 4.53 30 4.03zM3.2 14c-1.216 0-2.2.984-2.2 2.2v17.6c0 1.216.984 2.2 2.2 2.2h17.6c1.216 0 2.2-.984 2.2-2.2V16.2c0-1.216-.984-2.2-2.2-2.2H3.2zm4.673 5h5.617a3.64 3.64 0 0 1 3.639 3.635v.07a4.083 4.083 0 0 1-4.084 4.084h-2.738v4.234H7.873V19zm2.434 1.896v3.999h2.392a1.872 1.872 0 0 0 1.871-1.872v-.255a1.872 1.872 0 0 0-1.87-1.872h-2.393zM25 26v7.8a4.2 4.2 0 0 1-4.2 4.2h-8.29c3.84 4.87 9.8 8 16.49 8 11.26 0 20.45-8.86 20.97-20H25z"/></svg>