<svg version="1.1" id="Layer_1" xmlns="http://www.w3.org/2000/svg" x="0" y="0" viewBox="0 0 967.8 938.1" style="enable-background:new 0 0 967.8 938.1" xml:space="preserve"><style>.st0{fill:#000}</style><g id="LOGOS"><path class="st0" d="M665.3 120.1C624.7 93.6 600.1 48.5 600.1 0h-103l-.2 412.7c-1.8 47.7-42 85-89.7 83.1-47.7-1.8-85-42-83.1-89.7 1.8-46.5 40-83.2 86.5-83.2 8.7 0 17.3 1.4 25.5 4V221.7c-8.5-1.2-17-1.8-25.5-1.9-104.5 0-189.5 85-189.5 189.5.2 104.6 84.9 189.4 189.6 189.5 104.5 0 189.5-85 189.5-189.5V200.1c41.7 30 91.8 46.2 143.2 46.1v-103c-27.8.1-54.9-8-78.1-23.1zM0 715.2h165.9l-15.2 47.5h-43v175.5H54V762.6l-54 .1v-47.5zm437.7 0h169.7l-15.2 47.5h-46.8v175.5h-53.7V762.6l-54 .1v-47.5zM176 786.1h53.2v152h-52.9zm74.3-71.6h53.1v103.8l52.7-51.7h63.4l-66.6 64.6L427.5 938H369l-49.8-74-15.8 15.3V938h-53.1V714.5zm540.3 0h53.1v103.8l52.7-51.7h63.4l-66.6 64.6L967.8 938h-58.5l-49.8-74-15.8 15.3V938h-53.1V714.5z"/><circle class="st0" cx="202.6" cy="741.9" r="26.8"/><path class="st0" d="M678 756.1c-50.3 0-91 40.7-91 91s40.7 91 91 91 91-40.7 91-91-40.8-91-91-91zm0 135.2c-24.4 0-44.2-19.8-44.2-44.2s19.8-44.2 44.2-44.2c24.4 0 44.2 19.8 44.2 44.2 0 24.4-19.8 44.2-44.2 44.2z"/></g></svg>