<svg viewBox="0 0 40 40" xmlns="http://www.w3.org/2000/svg"><g data-name="Word 32x"><path d="M14.17 8h18.66A1.17 1.17 0 0 1 34 9.17v21.67A1.15 1.15 0 0 1 32.83 32H14.17a1.21 1.21 0 0 1-.83-.33 1.14 1.14 0 0 1-.34-.81V9.17a1.15 1.15 0 0 1 .34-.82 1.33 1.33 0 0 1 .83-.35Z" style="fill:#666"/><path d="M34 26H13v4.84A1.15 1.15 0 0 0 14.17 32h18.66A1.15 1.15 0 0 0 34 30.84Z" style="fill:#1a1a1a"/><path d="M13 20h21v6H13Z" style="fill:#333"/><path d="M13 14h21v6H13Z" style="fill:#4d4d4d"/><path d="M7.16 13.16h11.66A1.15 1.15 0 0 1 20 14.3v11.41a1.15 1.15 0 0 1-1.16 1.15H7.16a1.26 1.26 0 0 1-.82-.34 1.14 1.14 0 0 1-.34-.81V14.29a1.15 1.15 0 0 1 1.16-1.13Z" data-name="Back Plate-2"/><path d="M16.58 24.29H15l-1.83-5.91-1.93 5.91H9.68l-1.76-8.56H9.5l1.22 6 1.84-5.82h1.31l1.75 5.82 1.23-6h1.49Z" style="fill:#fff"/></g></svg>